<svg xmlns="http://www.w3.org/2000/svg" viewBox="0 0 100 50"><defs><style>.cls-1{fill:#fff;opacity:0;}.cls-2{fill:none;stroke:#58595b;stroke-miterlimit:10;stroke-width:3px;}.cls-3{fill:#414042;}</style></defs><title>computation-icon</title><g id="bg"><rect class="cls-1" width="100" height="50"/></g><g id="computation"><rect class="cls-2" x="2.14" y="4.06" width="95" height="42.47" rx="2" ry="2"/><path class="cls-3" d="M41.3,44.24,29.84,38.81a4.14,4.14,0,0,1-1.33-.92,1.79,1.79,0,0,1,0-2.29,1.56,1.56,0,0,1,1.18-.46,2.32,2.32,0,0,1,.64.11,8.83,8.83,0,0,1,1,.4l13.92,6.5.14.09q2,.9,2,2.07t-1.88,2a1.54,1.54,0,0,1-.28.14l-13.9,6.38a6.08,6.08,0,0,1-.91.35,2.65,2.65,0,0,1-.71.11,1.57,1.57,0,0,1-1.18-.45,1.65,1.65,0,0,1-.44-1.2,1.62,1.62,0,0,1,.38-1.08,4,4,0,0,1,1.34-.91Z" transform="translate(0 -22.06)"/><path class="cls-3" d="M47.79,60.52H70v3.3H47.79Z" transform="translate(0 -22.06)"/></g></svg>