<svg xmlns="http://www.w3.org/2000/svg" viewBox="0 0 100 100"><defs><style>.cls-1{opacity:0;}.cls-2{fill:#fff;}.cls-3{fill:#424143;}</style></defs><title>map-icon</title><g id="bg"><g class="cls-1"><rect class="cls-2" width="100" height="100"/></g></g><g id="Map"><path class="cls-3" d="M97.7,29.74a.71.71,0,0,1-.18,1.16c-.51.31-1,.74-1.54,1.05-.86.51-.94,1.88-2.2,1.91-.12,0-.18.2-.13.29.2.34-.05.55-.17.8a2.31,2.31,0,0,0,.5,3c.27.23.33.63.08.78-.79.49-1.14,1.59-2.3,1.57.15.35.63.56.18.88a18.07,18.07,0,0,1-2.06,1.39c-.36.18-.41.23-.31.63a2.57,2.57,0,0,1-.48,2.48,2.15,2.15,0,0,0-.52,2.48c.24.51-.35.78-.78,1s-.49,0-.59-.33-.35-.1-.52-.17a.21.21,0,0,0-.13.05c0,.11.13.24.1.31a1.46,1.46,0,0,0,.17,1.25c.51.33-.24,1,.28,1.05.83.17.75.89,1.05,1.41s0,.59-.47.74c.62.27,1.44.29.9,1.17-.2.31-.42.66-.79.66-.55,0-.26.35-.17.41.71.58.25.84-.27,1.1a3,3,0,0,0-1.72,1.86.77.77,0,0,1-.77.63,1.21,1.21,0,0,0-1.16,1.08,2.92,2.92,0,0,1-1.09,1.71c-.38.39-.8.74-1.15,1.15A5.21,5.21,0,0,0,80,66.85a6.82,6.82,0,0,0,2,4.47,1.63,1.63,0,0,1,.7,1.17,2.13,2.13,0,0,0,.33,1.13c.64,1.18,1.59,2.23,1.46,3.77a10,10,0,0,0-.23,1.66c0,.6-.75.66-1.25.84s-.36-.28-.53-.47c-.35-.38-.48-1.12-1.23-1-.34,0-.26-.27-.36-.43s-.3-.48-.47-.72c-.46-.67-1.25-1-1.63-1.77-.17-.35.09-.77-.12-.83-1-.25-.59-.85-.49-1.43s.22-1.39-.46-1.71a5.36,5.36,0,0,1-1.5-1.15c-.47-.48-1-1.1-1.82-.23a2.18,2.18,0,0,1-1.28.75c-.24,0-.68.18-.68-.14,0-.63-.51-.56-.8-.83-1.43-1.21-3,.66-4.44-.25-.46.51-1.08.29-1.63.34s-.61.12-.5.71a.46.46,0,0,1-.15.49c-.66.54-.78,1,.25,1.21a.33.33,0,0,1,.27.41c-.07.17-.24.24-.4.33s-.27-.12-.34-.13c-.42-.1-.78-1.26-1.33-.14,0,.05-.28,0-.42,0s-.45-.12-.62,0c-.49.42-.86.09-1.15-.22a4.35,4.35,0,0,0-1.34-.85c-.13-.07-.39-.31-.46-.05-.16.67-.73.5-1,.38-1.27-.49-2.43-.08-3.67.14a1.84,1.84,0,0,0-1.37.88,2.9,2.9,0,0,1-1.5,1.16,7.39,7.39,0,0,0-1.6.76c-1.05.83-2.1,2.58-1.65,4,.16.53.67,1,.46,1.65h-.74a1.73,1.73,0,0,0-.87-.39c-1.12-.28-2.26-.59-2.76-1.86a6.58,6.58,0,0,0-1.34-2.77,2.44,2.44,0,0,1-.71-.92A5.15,5.15,0,0,0,40.94,72a4.6,4.6,0,0,0-1.72-.55c-.73-.21-1,.35-1.27,1-.35.83-.74.91-1.51.41-.46-.29-.9-.6-1.34-.92a1.83,1.83,0,0,1-.83-1.51,1.94,1.94,0,0,0-.73-1.52c-.5-.39-.87-.94-1.33-1.37s-.7-1.26-1.48-1.37c-.63-.09-1.27-.09-1.89-.21s-1.06-.28-.93.63c0,.29-.23.35-.45.26a2.57,2.57,0,0,0-.7-.15c-2.54-.22-5.06-.53-7.17-2.19-1.33-1-3.21-1.28-4.17-2.87,0,0-.17,0-.26,0-1.11-.12-2.22-.29-3.32-.35-.58,0-.78-.25-.71-.76A1.85,1.85,0,0,0,10.8,59c-.65-.68-1.14-1.59-2.09-2a.46.46,0,0,1-.21-.17c-.45-.9-1.35-1.08-2.16-1.4-.3-.12-.58-.26-.43-.65a2.49,2.49,0,0,0-.41-2.39c-.38-.55-.33-1.29-.85-1.77a.38.38,0,0,1,0-.51c.65-.5.58-.89-.12-1.27a.59.59,0,0,1-.26-.46A3.8,3.8,0,0,0,3.94,46c-.25-.41-.22-1.1-.54-1.62a1.8,1.8,0,0,1,0-1.66A1.74,1.74,0,0,0,3,40.81v-.74a3.71,3.71,0,0,0,1.36-3.28,5.07,5.07,0,0,1,.81-3.17,18.69,18.69,0,0,0,2.75-8.41,3.14,3.14,0,0,0-.13-1.61.86.86,0,0,1,.25-1c.21-.18.47.2.67.33a4.79,4.79,0,0,0,1.5.77,1.21,1.21,0,0,1,1,1.16V22c1.06.29,2.06.6,3.07.84,2.47.58,4.92,1.18,7.4,1.68,2.64.53,5.31,1,8,1.43s5.18.68,7.79.93q2.8.26,5.6.42c3,.17,6.06.34,9.09.31.21,0,.48.12.56-.27,0-.22-.07-.68.33-.6a.71.71,0,0,1,.51.74c0,.55.3.83.89.88a2.38,2.38,0,0,0,1.38,0c.36-.15.71.08,1,.38a2.27,2.27,0,0,0,1.76.71,5.23,5.23,0,0,1,3,.16,10.28,10.28,0,0,0-3.62,3.06,5.4,5.4,0,0,0,1.36-.59c.28-.17.46,0,.49.14.13.71.66.58,1,.38a12.78,12.78,0,0,0,2.45-1.54c.26-.27.6-.79.93-.47s-.26.62-.41.94c0,0,0,.12,0,.2a1.92,1.92,0,0,1,1.26.55,1.26,1.26,0,0,0,1.53.16c.63-.48,1.43-.41,2.09-.77.11-.07.38-.14.38.17,0,.6.3.58.7.38s.41,0,.53.2c.25.34.45.74,1,.48,0,0,.22.12.25.21s-.1.28-.24.31-.37,0-.54,0c-.33,0-.83-.2-.91.27s.5.14.68.39a.89.89,0,0,0,.38.23,2,2,0,0,1,1.09,3.11c-.12.2-.27.38-.38.59a.34.34,0,0,0,.11.48c.18.1.28-.07.38-.17s.22-.36.35-.52c.43-.54.84-.53,1.17.1a2.82,2.82,0,0,1,.34.74c.12.67.56,1.52.11,2a4.63,4.63,0,0,0-.9,1.73c-.08.18-.17.43,0,.47.59.12,1.05.67,1.78.31a19.54,19.54,0,0,0,4.47-3.08c.36-.33.84-.71.28-1.34-.26-.31-.07-.68.36-.85a3.06,3.06,0,0,1,1.59-.25,2.56,2.56,0,0,0,1.24-.18c.48-.15.72-.6,1.1-.89a1.07,1.07,0,0,0-.41-.79c-.23-.15,0-.34.11-.43a3,3,0,0,0,.66-1,3.25,3.25,0,0,1,2-1.63c1.62-.51,3.51-.29,4.8-1.77A2.57,2.57,0,0,0,92,29.06,6.94,6.94,0,0,1,92.42,26c.15-.37.18-1.08.85-.39.2.21.3,0,.45-.12.83-.48,1.42-.23,1.73.72.2.63.37,1.27.61,1.88.07.17,0,.43.37.54C97,28.79,97.16,29.45,97.7,29.74Z"/></g></svg>