<svg xmlns="http://www.w3.org/2000/svg" viewBox="0 0 100 50"><defs><style>.cls-1{fill:#fff;opacity:0;}.cls-2,.cls-4{fill:#414042;}.cls-3{fill:none;}.cls-3,.cls-4{stroke:#414042;stroke-linecap:round;stroke-linejoin:round;}</style></defs><title>sampler-icon</title><g id="bg"><rect class="cls-1" width="100" height="50"/></g><g id="band-limiter"><path class="cls-2" d="M87.33,55.92v6.81h-72V31.39A36,36,0,0,1,29,34.11,38.23,38.23,0,0,1,43.12,44.84C48.62,50.78,60.22,56.75,87.33,55.92Z" transform="translate(0 -22.06)"/><path class="cls-3" d="M87.33,55.92c-27.11.83-38.71-5.14-44.21-11.08A38.23,38.23,0,0,0,29,34.11a36,36,0,0,0-13.65-2.72" transform="translate(0 -22.06)"/><line class="cls-3" x1="87.33" y1="40.67" x2="15.33" y2="40.67"/><line class="cls-3" x1="15.33" y1="9.33" x2="15.33" y2="40.67"/><line class="cls-3" x1="87.33" y1="40.67" x2="87.33" y2="33.86"/><polygon class="cls-4" points="77.31 20.58 72.2 29.42 67.1 20.58 77.31 20.58"/><polygon class="cls-4" points="77.31 13.09 72.2 21.93 67.1 13.09 77.31 13.09"/></g></svg>