<svg xmlns="http://www.w3.org/2000/svg" viewBox="0 0 100 100"><defs><style>.cls-1{fill:#fff;opacity:0;}.cls-2{fill:#f1f2f2;}.cls-3{fill:#58595b;}.cls-4{fill:#808285;}.cls-5{fill:#e6e7e8;}.cls-6{fill:#bcbec0;}.cls-7{fill:#a7a9ac;}.cls-8,.cls-9{fill:none;stroke:#414042;stroke-linejoin:round;}.cls-8{stroke-width:4px;}.cls-9{stroke-width:2px;}</style></defs><title>heatmap-icon</title><g id="bg"><rect class="cls-1" width="100" height="100"/></g><g id="heatmap"><rect class="cls-2" x="50.58" y="10.69" width="20.25" height="19.79"/><rect class="cls-3" x="70.83" y="69.93" width="19.91" height="20.62"/><rect class="cls-3" x="70.83" y="50.21" width="19.91" height="19.72"/><rect class="cls-4" x="70.83" y="30.48" width="19.91" height="19.73"/><rect class="cls-5" x="70.83" y="10.69" width="19.91" height="19.79"/><rect class="cls-6" x="50.58" y="69.93" width="20.25" height="20.62"/><rect class="cls-4" x="50.58" y="50.21" width="20.25" height="19.72"/><rect class="cls-6" x="50.58" y="30.48" width="20.25" height="19.73"/><rect class="cls-3" x="30.33" y="69.93" width="20.25" height="20.62"/><rect class="cls-6" x="30.33" y="50.21" width="20.25" height="19.72"/><rect class="cls-5" x="30.33" y="30.48" width="20.25" height="19.73"/><rect class="cls-4" x="30.33" y="10.69" width="20.25" height="19.79"/><rect class="cls-7" x="10.88" y="69.93" width="19.45" height="20.62"/><rect class="cls-5" x="10.88" y="50.21" width="19.45" height="19.72"/><rect class="cls-3" x="10.88" y="30.48" width="19.45" height="19.73"/><rect class="cls-6" x="10.88" y="10.69" width="19.45" height="19.79"/><polygon class="cls-8" points="90.74 69.93 90.74 90.55 70.83 90.55 50.58 90.55 30.33 90.55 10.88 90.55 10.88 69.93 10.88 50.21 10.88 30.48 10.88 10.69 30.33 10.69 50.58 10.69 70.83 10.69 90.74 10.69 90.74 30.48 90.74 50.21 90.74 69.93"/><polyline class="cls-9" points="10.88 30.48 30.33 30.48 50.58 30.48 70.83 30.48 90.74 30.48"/><polyline class="cls-9" points="10.88 50.21 30.33 50.21 50.58 50.21 70.83 50.21 90.74 50.21"/><polyline class="cls-9" points="10.88 69.93 30.33 69.93 50.58 69.93 70.83 69.93 90.74 69.93"/><polyline class="cls-9" points="30.33 90.55 30.33 69.93 30.33 50.21 30.33 30.48 30.33 10.69"/><polyline class="cls-9" points="50.58 10.69 50.58 30.48 50.58 50.21 50.58 69.93 50.58 90.55"/><polyline class="cls-9" points="70.83 10.69 70.83 30.48 70.83 50.21 70.83 69.93 70.83 90.55"/></g></svg>