<svg xmlns="http://www.w3.org/2000/svg" viewBox="0 0 100 100"><defs><style>.cls-1{fill:#fff;opacity:0;}.cls-2,.cls-3{fill:#414042;}.cls-2,.cls-3,.cls-4{stroke:#414042;stroke-miterlimit:10;}.cls-3,.cls-4{stroke-width:3px;}.cls-4{fill:none;}</style></defs><title>network-icon</title><g id="bg"><rect class="cls-1" width="100" height="100"/></g><g id="network"><rect class="cls-2" x="41.27" y="8.07" width="12.56" height="12.56" rx="6.28" ry="6.28"/><rect class="cls-2" x="62.39" y="10.79" width="12.56" height="12.56" rx="6.28" ry="6.28"/><rect class="cls-2" x="6.67" y="50.96" width="12.56" height="12.56" rx="6.28" ry="6.28" transform="translate(26.47 0.13) rotate(26.07)"/><circle class="cls-2" cx="54.02" cy="45.64" r="8.37"/><rect class="cls-2" x="31.62" y="79.66" width="12.56" height="12.56" rx="6.28" ry="6.28"/><rect class="cls-3" x="80.79" y="50" width="12.56" height="12.56" rx="6.28" ry="6.28" transform="translate(33.59 -32.54) rotate(26.07)"/><line class="cls-4" x1="54.02" y1="45.64" x2="87.07" y2="56.27"/><line class="cls-4" x1="53.3" y1="46.66" x2="68.67" y2="17.06"/><line class="cls-4" x1="37.9" y1="86.17" x2="68.12" y2="82.41"/><rect class="cls-2" x="60.99" y="76.13" width="12.56" height="12.56" rx="6.28" ry="6.28"/><line class="cls-4" x1="12.95" y1="57.23" x2="53.83" y2="45.64"/><line class="cls-4" x1="47.55" y1="13.74" x2="68.67" y2="17.06"/><line class="cls-4" x1="12.95" y1="57.23" x2="68.12" y2="82.41"/><line class="cls-4" x1="12.95" y1="57.23" x2="37.9" y2="86.17"/><line class="cls-4" x1="68.67" y1="17.06" x2="87.07" y2="56.27"/></g></svg>