<svg xmlns="http://www.w3.org/2000/svg" viewBox="0 0 100 100"><defs><style>.cls-1{fill:#fff;opacity:0;}.cls-2,.cls-3{fill:#414042;stroke:#414042;}.cls-2{stroke-miterlimit:10;stroke-width:3px;}.cls-3{stroke-linecap:round;stroke-linejoin:round;}</style></defs><title>aggregation</title><g id="bg"><rect class="cls-1" width="100" height="100"/></g><g id="aggregation"><rect class="cls-2" x="23.28" y="66.07" width="10.38" height="10.75"/><rect class="cls-2" x="38.65" y="66.07" width="10.38" height="10.75"/><rect class="cls-2" x="53.64" y="66.07" width="10.38" height="10.75"/><rect class="cls-2" x="69.05" y="66.07" width="10.38" height="10.75"/><polygon class="cls-2" points="27.28 27.13 19.31 20.25 25.95 11.99 33.92 18.87 27.28 27.13"/><polygon class="cls-2" points="44.14 38.14 34.76 33.55 39.2 23.83 48.58 28.42 44.14 38.14"/><polygon class="cls-2" points="61.79 44.34 51.56 42.54 53.29 31.94 63.52 33.74 61.79 44.34"/><rect class="cls-2" x="69.05" y="35.84" width="10.38" height="10.75"/><path class="cls-3" d="M16.49,55h3.12a0,0,0,0,1,0,0V86.47a0,0,0,0,1,0,0H10.49a0,0,0,0,1,0,0V61a6,6,0,0,1,6-6Z"/><path class="cls-3" d="M83.28,54.71H86.4a6,6,0,0,1,6,6V86.2a0,0,0,0,1,0,0H83.28a0,0,0,0,1,0,0V54.71A0,0,0,0,1,83.28,54.71Z"/><rect class="cls-3" x="11.41" y="81.35" width="80.98" height="5.11"/><rect class="cls-2" x="38.65" y="50.85" width="10.38" height="10.75"/><rect class="cls-2" x="53.64" y="50.85" width="10.38" height="10.75"/><rect class="cls-2" x="69.05" y="50.85" width="10.38" height="10.75"/></g></svg>