<svg xmlns="http://www.w3.org/2000/svg" viewBox="0 0 100 100"><defs><style>.cls-1{fill:#fff;opacity:0;}.cls-2{fill:#414042;}.cls-2,.cls-3{stroke:#414042;stroke-miterlimit:10;}.cls-3{fill:none;stroke-width:3px;}</style></defs><title>clustering</title><g id="bg"><rect class="cls-1" width="100" height="100"/></g><g id="clustering"><rect class="cls-2" x="21.44" y="24.28" width="12.56" height="12.56" rx="6.28"/><rect class="cls-2" x="29.7" y="49.78" width="12.56" height="12.56" rx="6.28"/><rect class="cls-2" x="14.39" y="40.05" width="12.56" height="12.56" rx="6.28"/><rect class="cls-2" x="56.01" y="71.46" width="12.56" height="12.56" rx="6.28" transform="translate(92.56 -17.16) rotate(56.4)"/><rect class="cls-2" x="61.73" y="53.66" width="12.56" height="12.56" rx="6.28" transform="translate(80.29 -29.88) rotate(56.4)"/><rect class="cls-2" x="51.29" y="19.08" width="12.56" height="12.56" rx="6.28" transform="translate(41.14 -35.36) rotate(51.08)"/><rect class="cls-2" x="73.91" y="68.53" width="12.56" height="12.56" rx="6.28" transform="translate(98.11 -33.38) rotate(56.4)"/><rect class="cls-2" x="70.26" y="21.51" width="12.56" height="12.56" rx="6.28" transform="translate(50.08 -49.22) rotate(51.08)"/><rect class="cls-2" x="17.32" y="62.34" width="12.56" height="12.56" rx="6.28" transform="translate(32.56 -3.39) rotate(26.07)"/><ellipse class="cls-3" cx="27.78" cy="50.62" rx="17.46" ry="32.45"/><path class="cls-3" d="M71.32,48.08c-9.63.6-15.79,9.65-16.86,11.31-4.63,7.13-6,17.43-.52,23.89,8.21,9.66,28.38,6.7,35.16-3.4,5.52-8.22.33-18.44-.83-20.54S81.69,47.43,71.32,48.08Z"/><path class="cls-3" d="M48.89,31.55C55,42.57,74,39.67,76,39.35c5.92-.91,7.89-2.88,8.57-3.68,2.94-3.41,2.43-8.48,1.12-11.48C81,13.44,57.05,8.36,49.52,16.82,46,20.84,46.57,27.35,48.89,31.55Z"/></g></svg>