<svg xmlns="http://www.w3.org/2000/svg" viewBox="0 0 100 100"><defs><style>.cls-1{fill:#fff;opacity:0;}.cls-2,.cls-4{fill:#414042;}.cls-3{fill:none;}.cls-3,.cls-4{stroke:#414042;stroke-linecap:round;stroke-linejoin:round;}</style></defs><title>square-icons</title><g id="bg"><rect class="cls-1" width="100" height="100"/></g><g id="filter"><path class="cls-2" d="M87.25,70.09V84.15h-72V19.45c3.36.06,8.33,1,13.65,5.61C36.84,31.92,41.26,43.21,43,47.21,48.54,59.48,60.14,71.8,87.25,70.09Z"/><path class="cls-3" d="M87.25,70.09C60.14,71.8,48.54,59.48,43,47.21c-1.78-4-6.2-15.29-14.14-22.15-5.32-4.62-10.29-5.55-13.65-5.61"/><line class="cls-3" x1="87.25" y1="84.15" x2="15.25" y2="84.15"/><line class="cls-3" x1="15.25" y1="19.45" x2="15.25" y2="84.15"/><line class="cls-3" x1="87.25" y1="84.15" x2="87.25" y2="70.09"/><polygon class="cls-4" points="78.81 53.79 73.7 62.63 68.6 53.79 78.81 53.79"/><polygon class="cls-4" points="78.81 46.3 73.7 55.14 68.6 46.3 78.81 46.3"/><polygon class="cls-4" points="78.81 38.81 73.7 47.65 68.6 38.81 78.81 38.81"/></g></svg>