<svg xmlns="http://www.w3.org/2000/svg" viewBox="0 0 100 100"><defs><style>.cls-1,.cls-6{fill:#fff;}.cls-1{opacity:0;}.cls-2,.cls-3,.cls-4{fill:#414042;}.cls-2,.cls-3,.cls-4,.cls-5{stroke:#414042;}.cls-2,.cls-3{stroke-linecap:round;stroke-linejoin:round;}.cls-2{stroke-width:0.5px;}.cls-4,.cls-5{stroke-width:6px;}.cls-5{fill:none;}</style></defs><title>square-icons</title><g id="bg"><rect class="cls-1" width="100" height="100"/></g><g id="linker"><rect class="cls-2" x="22.8" y="41.2" width="53.85" height="35.48" rx="5" ry="5"/><polygon class="cls-3" points="55.51 31.18 49.73 41.2 43.94 31.18 55.51 31.18"/><line class="cls-4" x1="9" y1="58.94" x2="88.22" y2="58.94"/><polygon class="cls-3" points="85.97 53.15 96 58.94 85.97 64.73 85.97 53.15"/><line class="cls-5" x1="49.73" y1="31.18" x2="49.73" y2="10.36"/><path class="cls-6" d="M54.52,58.94a6.88,6.88,0,0,1-6.86,6.88H43.34a6.88,6.88,0,0,1,0-13.76h2.37a.72.72,0,0,1,.54,1.21,8.19,8.19,0,0,0-1.38,2,.72.72,0,0,1-.65.41h-.84a3.26,3.26,0,1,0,0,6.52h4.3a3.26,3.26,0,0,0,3.26-3.26,3.3,3.3,0,0,0-.06-.61.74.74,0,0,1,.18-.62,1.83,1.83,0,0,1,1.33-.58H53.7a.73.73,0,0,1,.71.6,7.07,7.07,0,0,1,.11,1.21Zm9,0a6.89,6.89,0,0,0-6.88-6.88H52.34a6.88,6.88,0,0,0-6.86,6.88,7.07,7.07,0,0,0,.11,1.21.73.73,0,0,0,.71.6h1.35A1.83,1.83,0,0,0,49,60.17a.76.76,0,0,0,.18-.63,3.09,3.09,0,0,1-.06-.6,3.26,3.26,0,0,1,3.26-3.26h4.3a3.26,3.26,0,1,1,0,6.52h-.84a.72.72,0,0,0-.65.41,8.19,8.19,0,0,1-1.38,2,.72.72,0,0,0,.54,1.21h2.37a6.89,6.89,0,0,0,6.88-6.88Z"/></g></svg>