<svg xmlns="http://www.w3.org/2000/svg" viewBox="0 0 100 100"><defs><style>.cls-1{fill:#fff;opacity:0;}.cls-2,.cls-3{fill:none;stroke:#414042;stroke-linejoin:round;}.cls-2{stroke-width:4px;}.cls-3{stroke-width:2px;}.cls-4{fill:#414042;}</style></defs><title>neural-network</title><g id="bg"><rect class="cls-1" width="100" height="100"/></g><g id="neural-network"><circle class="cls-2" cx="15.53" cy="50" r="6.68"/><circle class="cls-2" cx="38.67" cy="50" r="6.68"/><circle class="cls-2" cx="84.94" cy="50" r="6.68"/><circle class="cls-2" cx="61.8" cy="50" r="6.68"/><circle class="cls-2" cx="26.84" cy="13.28" r="6.68"/><circle class="cls-2" cx="49.98" cy="13.28" r="6.68"/><circle class="cls-2" cx="73.12" cy="13.28" r="6.68"/><circle class="cls-2" cx="27.1" cy="86.72" r="6.68"/><circle class="cls-2" cx="71.57" cy="86.72" r="6.68"/><line class="cls-3" x1="26.84" y1="19.96" x2="18.62" y2="36.94"/><polygon class="cls-4" points="17.22 34.5 15.53 43.31 21.4 36.52 17.22 34.5"/><line class="cls-3" x1="26.84" y1="19.96" x2="35.46" y2="36.99"/><polygon class="cls-4" points="32.67 36.63 38.66 43.31 36.82 34.53 32.67 36.63"/><line class="cls-3" x1="49.98" y1="19.96" x2="41.76" y2="36.94"/><polygon class="cls-4" points="40.35 34.5 38.66 43.31 44.54 36.52 40.35 34.5"/><line class="cls-3" x1="49.98" y1="19.96" x2="58.71" y2="37.99"/><polygon class="cls-4" points="55.93 37.58 61.8 44.37 60.11 35.55 55.93 37.58"/><line class="cls-3" x1="49.98" y1="19.96" x2="21.39" y2="39.34"/><polygon class="cls-4" points="21.4 36.52 15.53 43.31 24.01 40.37 21.4 36.52"/><line class="cls-3" x1="49.98" y1="19.96" x2="79.11" y2="40.15"/><polygon class="cls-4" points="76.49 41.16 84.94 44.19 79.14 37.34 76.49 41.16"/><line class="cls-3" x1="73.12" y1="19.96" x2="44.53" y2="39.34"/><polygon class="cls-4" points="44.54 36.52 38.66 43.31 47.15 40.37 44.54 36.52"/><line class="cls-3" x1="26.84" y1="19.96" x2="55.91" y2="39.38"/><polygon class="cls-4" points="53.3 40.43 61.8 43.31 55.88 36.57 53.3 40.43"/><line class="cls-3" x1="26.84" y1="19.96" x2="78.4" y2="41.46"/><polygon class="cls-4" points="76.04 43 84.94 44.19 77.83 38.71 76.04 43"/><line class="cls-3" x1="73.12" y1="19.96" x2="64.89" y2="36.94"/><polygon class="cls-4" points="63.49 34.5 61.8 43.31 67.67 36.52 63.49 34.5"/><line class="cls-3" x1="73.12" y1="19.96" x2="81.74" y2="36.99"/><polygon class="cls-4" points="78.95 36.63 84.94 43.31 83.1 34.53 78.95 36.63"/><line class="cls-3" x1="15.53" y1="56.68" x2="23.95" y2="73.69"/><polygon class="cls-4" points="21.16 73.3 27.1 80.04 25.33 71.23 21.16 73.3"/><line class="cls-3" x1="38.67" y1="56.68" x2="30.24" y2="73.69"/><polygon class="cls-4" points="28.86 71.23 27.1 80.04 33.03 73.3 28.86 71.23"/><line class="cls-3" x1="73.12" y1="19.96" x2="22.1" y2="40.65"/><polygon class="cls-4" points="22.69 37.9 15.53 43.31 24.44 42.21 22.69 37.9"/><line class="cls-3" x1="61.8" y1="56.68" x2="32.98" y2="76.08"/><polygon class="cls-4" points="32.99 73.27 27.1 80.04 35.59 77.12 32.99 73.27"/><line class="cls-3" x1="84.94" y1="56.68" x2="75.09" y2="73.89"/><polygon class="cls-4" points="73.86 71.36 71.57 80.04 77.9 73.67 73.86 71.36"/><line class="cls-3" x1="38.67" y1="56.68" x2="65.79" y2="75.94"/><polygon class="cls-4" points="63.15 76.91 71.57 80.04 65.84 73.12 63.15 76.91"/><line class="cls-3" x1="84.94" y1="56.68" x2="33.67" y2="77.38"/><polygon class="cls-4" points="34.27 74.64 27.1 80.04 36.01 78.95 34.27 74.64"/><line class="cls-3" x1="15.53" y1="56.68" x2="65.03" y2="77.31"/><polygon class="cls-4" points="62.67 78.85 71.57 80.04 64.46 74.56 62.67 78.85"/><line class="cls-3" x1="61.8" y1="56.68" x2="68.84" y2="73.5"/><polygon class="cls-4" points="66.08 72.93 71.57 80.04 70.37 71.14 66.08 72.93"/></g></svg>