<svg xmlns="http://www.w3.org/2000/svg" viewBox="0 0 100 100"><defs><style>.cls-1{fill:#fff;opacity:0;}.cls-2{fill:none;stroke:#414042;stroke-miterlimit:10;stroke-width:4px;}.cls-3{fill:#414042;}</style></defs><title>script-editor</title><g id="bg"><rect class="cls-1" width="100" height="100"/></g><g id="script-editor"><rect class="cls-2" x="8.37" y="21.74" width="83.26" height="56.53" rx="2"/><path class="cls-3" d="M41.66,46.89,30.2,41.46a4.34,4.34,0,0,1-1.33-.92,1.66,1.66,0,0,1-.39-1.1,1.65,1.65,0,0,1,.44-1.2,1.57,1.57,0,0,1,1.18-.46,2.38,2.38,0,0,1,.64.11c.24.07.58.21,1,.4L45.69,44.8l.14.09c1.3.59,2,1.29,2,2.07s-.63,1.46-1.88,2a1.43,1.43,0,0,1-.28.14L31.71,55.5a5.58,5.58,0,0,1-.9.36,2.64,2.64,0,0,1-.71.1,1.56,1.56,0,0,1-1.18-.45,1.62,1.62,0,0,1-.44-1.2,1.59,1.59,0,0,1,.38-1.08,4.09,4.09,0,0,1,1.34-.91Z"/><path class="cls-3" d="M48.15,63.17H70.38v3.3H48.15Z"/></g></svg>