<svg xmlns="http://www.w3.org/2000/svg" viewBox="0 0 100 100"><defs><style>.cls-1{fill:#fff;opacity:0;}.cls-2{fill:#bcbec0;}.cls-3,.cls-4,.cls-5,.cls-6{fill:none;stroke:#414042;}.cls-3,.cls-4,.cls-5{stroke-linejoin:round;}.cls-3{stroke-width:7px;}.cls-4,.cls-6{stroke-width:2px;}.cls-5{stroke-width:5px;}.cls-6{stroke-miterlimit:10;}</style></defs><title>table-join</title><g id="bg"><rect class="cls-1" width="100" height="100"/></g><g id="tablejoin"><rect class="cls-2" x="40.56" y="12.18" width="21.52" height="75.76"/><path class="cls-3" d="M63.76,25.17"/><path class="cls-3" d="M12.56,25.17"/><path class="cls-4" d="M27.57,87.93"/><rect class="cls-5" x="40.89" y="25.17" width="51.2" height="62.76"/><path class="cls-3" d="M92.08,25.17"/><path class="cls-3" d="M40.89,25.17"/><path class="cls-4" d="M55.9,87.93"/><line class="cls-4" x1="40.56" y1="63.73" x2="91.76" y2="63.73"/><line class="cls-4" x1="40.56" y1="75.9" x2="91.76" y2="75.9"/><line class="cls-4" x1="40.24" y1="39.39" x2="91.44" y2="39.39"/><line class="cls-4" x1="40.24" y1="51.56" x2="91.44" y2="51.56"/><path class="cls-3" d="M33.76,12.18"/><rect class="cls-5" x="10.89" y="12.18" width="51.2" height="62.76"/><line class="cls-4" x1="10.56" y1="50.74" x2="61.76" y2="50.74"/><line class="cls-4" x1="10.56" y1="62.91" x2="61.76" y2="62.91"/><line class="cls-4" x1="10.24" y1="26.4" x2="61.44" y2="26.4"/><line class="cls-4" x1="10.24" y1="38.57" x2="61.44" y2="38.57"/><line class="cls-6" x1="40.89" y1="12.18" x2="40.89" y2="25.17"/><line class="cls-6" x1="61.76" y1="73.9" x2="61.76" y2="86.89"/></g></svg>