<svg xmlns="http://www.w3.org/2000/svg" viewBox="0 0 100 100"><defs><style>.cls-1{fill:#fff;opacity:0;}.cls-2,.cls-4{fill:none;}.cls-3{fill:#414042;}.cls-4{stroke:#414042;stroke-miterlimit:10;}</style></defs><title>datasrc-icon</title><g id="bg"><rect class="cls-1" width="100" height="100"/></g><g id="datasrc"><rect class="cls-2" x="17.48" y="43.14" width="5.2" height="11.65"/><path class="cls-3" d="M86.37,64.37V84H13.63V64.37ZM74.89,80V68.36h-5.2V80Zm-17.4,0V68.36H52.28V80ZM40.08,80V68.36h-5.2V80Zm-17.4,0V68.36h-5.2V80Z"/><path class="cls-3" d="M86.37,39V58.63H13.63V39ZM66.19,54.79V43.14H61V54.79Zm-8.7,0V43.14H52.28V54.79Zm-26.11,0V43.14h-5.2V54.79Zm-8.7,0V43.14h-5.2V54.79Z"/><path class="cls-3" d="M86.37,13.65V33.27H13.63V13.65ZM48.78,29.28V17.63h-5.2V29.28Zm-8.7,0V17.63h-5.2V29.28Zm-8.7,0V17.63h-5.2V29.28Zm-8.7,0V17.63h-5.2V29.28Z"/><rect class="cls-4" x="13.63" y="13.65" width="72.74" height="19.62"/><rect class="cls-4" x="13.63" y="39.01" width="72.74" height="19.62"/><rect class="cls-4" x="13.63" y="64.37" width="72.74" height="19.62"/><rect class="cls-4" x="17.48" y="43.14" width="5.2" height="11.65"/><rect class="cls-4" x="26.18" y="43.14" width="5.2" height="11.65"/><rect class="cls-4" x="52.28" y="43.14" width="5.21" height="11.65"/><rect class="cls-4" x="60.99" y="43.14" width="5.2" height="11.65"/><rect class="cls-4" x="17.48" y="68.36" width="5.2" height="11.65"/><rect class="cls-4" x="34.88" y="68.36" width="5.2" height="11.65"/><rect class="cls-4" x="52.28" y="68.36" width="5.21" height="11.65"/><rect class="cls-4" x="69.69" y="68.36" width="5.2" height="11.65"/><rect class="cls-4" x="17.48" y="17.63" width="5.2" height="11.65"/><rect class="cls-4" x="26.18" y="17.63" width="5.2" height="11.65"/><rect class="cls-4" x="34.88" y="17.63" width="5.2" height="11.65"/><rect class="cls-4" x="43.58" y="17.63" width="5.2" height="11.65"/></g></svg>