<svg xmlns="http://www.w3.org/2000/svg" viewBox="0 0 100 100"><defs><style>.cls-1,.cls-3{fill:#fff;}.cls-1{opacity:0;}.cls-2,.cls-4,.cls-5{fill:#414042;}.cls-2,.cls-5{stroke:#414042;stroke-linecap:round;stroke-linejoin:round;}.cls-2{stroke-width:0.5px;}</style></defs><title>linker</title><g id="bg"><rect class="cls-1" width="100" height="100"/></g><g id="linker"><rect class="cls-2" x="14.52" y="39.58" width="70.62" height="42.58" rx="5"/><path class="cls-3" d="M55.58,60.87a8.25,8.25,0,0,1-8.23,8.25H42.16a8.26,8.26,0,0,1,0-16.51H45a.87.87,0,0,1,.64,1.46A10.33,10.33,0,0,0,44,56.47a.87.87,0,0,1-.78.49h-1a3.91,3.91,0,1,0-.05,7.82h5.16a3.91,3.91,0,0,0,3.91-3.91,4.66,4.66,0,0,0-.06-.73.89.89,0,0,1,.21-.75A2.18,2.18,0,0,1,53,58.7h1.61a.86.86,0,0,1,.86.72,7.82,7.82,0,0,1,.13,1.45Zm10.82,0a8.27,8.27,0,0,0-8.25-8.26H53a8.27,8.27,0,0,0-8.23,8.26,8.88,8.88,0,0,0,.13,1.45.87.87,0,0,0,.86.72h1.61a2.16,2.16,0,0,0,1.6-.69.88.88,0,0,0,.22-.76,3.5,3.5,0,0,1-.07-.72A3.9,3.9,0,0,1,53,57h5.16a3.91,3.91,0,1,1,0,7.82h-1a.87.87,0,0,0-.78.49,10.33,10.33,0,0,1-1.65,2.4.86.86,0,0,0,.64,1.45h2.85a8.26,8.26,0,0,0,8.25-8.25Z"/><polygon class="cls-4" points="87.72 71.8 87.72 49.94 98.65 60.87 87.72 71.8"/><polygon class="cls-4" points="4.12 71.8 4.12 49.94 15.05 60.87 4.12 71.8"/><polygon class="cls-5" points="54.93 28.54 49.83 37.38 44.72 28.54 54.93 28.54"/><polygon class="cls-5" points="54.93 21.05 49.83 29.89 44.72 21.05 54.93 21.05"/><polygon class="cls-5" points="54.93 13.56 49.83 22.41 44.72 13.56 54.93 13.56"/></g></svg>