<svg xmlns="http://www.w3.org/2000/svg" viewBox="0 0 100 100"><defs><style>.cls-1{fill:#fff;opacity:0;}.cls-2,.cls-3{fill:none;stroke:#414042;stroke-linecap:round;stroke-linejoin:bevel;}.cls-2{stroke-width:5px;}.cls-3{stroke-width:2px;}</style></defs><title>parallelcoordinates-icon</title><g id="bg"><rect class="cls-1" width="100" height="100"/></g><g id="parallelcoordinates"><line class="cls-2" x1="10.88" y1="10.07" x2="10.88" y2="89.93"/><line class="cls-2" x1="91.42" y1="10.07" x2="91.42" y2="89.93"/><line class="cls-2" x1="30.67" y1="10.07" x2="30.67" y2="89.93"/><line class="cls-2" x1="72.08" y1="10.07" x2="72.08" y2="89.93"/><line class="cls-3" x1="10.88" y1="21.55" x2="30.67" y2="33.99"/><line class="cls-3" x1="30.67" y1="33.99" x2="72.08" y2="26.75"/><line class="cls-3" x1="72.08" y1="26.75" x2="91.42" y2="33.99"/><line class="cls-3" x1="91.42" y1="37.16" x2="72.08" y2="33.99"/><line class="cls-3" x1="72.08" y1="33.99" x2="30.67" y2="46.89"/><line class="cls-3" x1="30.67" y1="46.89" x2="10.88" y2="59.78"/><line class="cls-3" x1="10.88" y1="46.89" x2="30.67" y2="55.94"/><line class="cls-3" x1="29.77" y1="55.94" x2="72.08" y2="35.57"/><line class="cls-3" x1="71.03" y1="36.08" x2="91.42" y2="56.5"/><line class="cls-3" x1="91.42" y1="66.91" x2="72.08" y2="70.87"/><line class="cls-3" x1="72.08" y1="70.87" x2="30.67" y2="64.42"/><line class="cls-3" x1="30.67" y1="64.42" x2="10.88" y2="73.7"/><line class="cls-3" x1="10.88" y1="35.57" x2="30.67" y2="51.41"/><line class="cls-3" x1="29.77" y1="51.41" x2="72.08" y2="56.5"/><line class="cls-3" x1="72.08" y1="56.5" x2="91.42" y2="64.42"/></g></svg>