<svg xmlns="http://www.w3.org/2000/svg" viewBox="0 0 100 100"><defs><style>.cls-1{fill:#fff;opacity:0;}.cls-2{fill:none;stroke-linecap:round;stroke-linejoin:bevel;stroke-width:5px;}.cls-2,.cls-3{stroke:#414042;}.cls-3{fill:#414042;stroke-miterlimit:10;}</style></defs><title>scatterplot-icon</title><g id="bg"><rect class="cls-1" width="100" height="100"/></g><g id="scatterplot"><line class="cls-2" x1="10.88" y1="10.07" x2="10.88" y2="89.93"/><line class="cls-2" x1="10.88" y1="89.93" x2="90.74" y2="89.93"/><rect class="cls-3" x="29.43" y="23.34" width="12.56" height="12.56" rx="6.28" ry="6.28"/><rect class="cls-3" x="37.44" y="39.43" width="12.56" height="12.56" rx="6.28" ry="6.28"/><rect class="cls-3" x="20.77" y="52.7" width="12.56" height="12.56" rx="6.28" ry="6.28"/><rect class="cls-3" x="71.44" y="68.31" width="12.56" height="12.56" rx="6.28" ry="6.28"/><rect class="cls-3" x="54.73" y="41.17" width="12.56" height="12.56" rx="6.28" ry="6.28"/><rect class="cls-3" x="46.54" y="26.87" width="12.56" height="12.56" rx="6.28" ry="6.28"/><rect class="cls-3" x="66.02" y="47.45" width="12.56" height="12.56" rx="6.28" ry="6.28"/><rect class="cls-3" x="62.39" y="10.79" width="12.56" height="12.56" rx="6.28" ry="6.28"/><rect class="cls-3" x="37.44" y="71.73" width="12.56" height="12.56" rx="6.28" ry="6.28" transform="translate(38.73 -11.28) rotate(26.07)"/></g></svg>